<?xml version="1.0" encoding="UTF-8"?>
<svg version="1.1" viewBox="0 0 2048 2048" width="512" height="512" xmlns="http://www.w3.org/2000/svg">
<path transform="translate(1624,72)" d="m0 0h13l9 3 8 6 6 8 3 8v90l78-2h10l9 2 9 6 7 8 4 10v13l-4 9-6 8-14 15-8 8-7 8-13 13-7 8-13 13-7 8-16 16-2 3h-2l-2 4-13 13-7 8-15 15-7 8-9 8-10 4-6 1-66 2-37 1-5 3-7 8h-2l-2 4-22 22-7 8-20 20-1 2h-2l-2 4-29 29-7 8-22 22 1 5 10 11 15 20 14 20 5 8 2 1 228 1 18 3 15 5 21 11 14 11 12 12 10 14 9 17 6 18 2 10 1 11v782l-2 15-4 15-7 17-9 14-9 11-11 11-16 11-16 8-18 6-20 3h-483l10 273 1 41h111l12 2 8 5 7 8 4 10v14l-4 10-6 8-12 6-9 1h-554l-10-3-6-4-6-7-4-8-1-4v-12l4-11 7-8 8-5 9-2h114v-28l7-184 3-85 1-17h-486l-18-3-18-6-17-9-12-9-12-11-11-13-9-15-6-15-4-14-2-12-1-17v-759l2-23 5-19 7-16 9-14 12-15 8-7 13-10 17-9 18-6 17-3 224-1 7-9 7-11 9-12 13-17 13-15 9-10 6-7h2l2-4h2l2-4h2l1-3 8-7 14-13 14-11 15-12 23-16 20-12 18-10 17-9 25-11 32-12 35-10 34-7 36-5 30-2h38l36 3 35 5 31 7 31 9 25 9 30 13 24 12 27 16 18 12 14 10 18 14 11 9 4-2 8-8 7-8 21-21 7-8 21-21 7-8 24-24 2-3h2l2-4 21-21 1-2 1-109 3-9 7-9 12-13 7-8 26-26 7-8 15-15 7-8 10-10 1-2h2l2-4 16-16 7-8 13-13 7-8 7-7 10-6z" fill="#F9C669"/>
<path transform="translate(381,657)" d="m0 0h184l-1 6-9 23-10 30-8 32-6 32-4 34-1 16v36l2 27 3 27 6 32 9 36 13 38 14 32 12 24 14 24 16 24 10 14 11 14 11 13 18 20 18 18 8 7 14 12 14 11 15 11 21 14 22 13 27 14 33 14 36 12 26 7 36 7 30 4 25 2h50l31-3 43-7 33-8 36-12 28-11 27-13 23-13 22-14 20-14 10-8 14-11 13-12 10-9 21-21 7-8 9-10 9-12 13-17 14-21 15-25 14-27 9-19 11-28 10-31 7-28 6-32 4-32 1-13v-51l-2-26-5-36-6-28-8-29-11-32-7-18 1-1h188l16 4 9 5 11 9 7 10 5 12 2 8v780l-4 15-6 11-8 9-10 7-11 5-10 2h-1270l-12-3-14-7-11-10-8-14-3-10-1-5v-778l3-14 5-10 8-10 10-8 11-5z" fill="#423B2E"/>
<path transform="translate(991,523)" d="m0 0h46l28 3 29 6 20 6 25 9 29 14 17 10 18 12 18 13 2 3-12 12-7 8-28 28-7 8-21 21-7 8-24 24-7 8-20 20-3 4-5-1-10-6-20-8-16-4-8-1h-27l-18 3-21 7-19 10-11 8-10 9-12 12-10 15-8 16-6 18-3 15-1 10v12l2 17 4 17 6 16 7 14 10 14 11 12 11 10 19 12 20 8 19 5 21 2 17-1 20-4 21-8 16-9 12-9 11-10 11-14 8-13 8-17 5-17 2-9 1-9v-22l-3-19-6-20-5-10 1-5 5-5 6-7 21-21 7-8 22-22 7-8 25-25 7-8 13-13 2-3h2l2-4 17-17 4 2 8 11 11 16 13 22 13 27 9 24 8 28 4 20 3 23 1 14v42l-3 25-4 22-6 24-10 28-9 20-12 23-12 19-9 12-10 13-9 10-7 8-15 15-11 9-12 10-17 12-18 11-20 11-28 12-28 9-21 5-23 4-19 2-27 1-23-1-27-3-25-5-28-8-28-11-26-13-13-8-14-9-12-9-10-8-13-11-15-14-1-3h-2l-7-8-11-13-13-18-11-17-9-16-8-16-7-16-8-22-7-26-4-20-3-24-1-15v-29l2-24 5-30 7-27 8-23 9-21 10-20 14-23 11-15 8-10 12-14 7-8h2l2-4 8-7 12-11 11-9 18-13 20-12 14-8 22-10 28-10 26-7 27-5z" fill="#423B2E"/>
<path transform="translate(1e3 427)" d="m0 0h29l36 3 36 6 28 7 33 11 24 10 28 14 19 11 21 14 19 14 14 11-1 5-18 18-5-1-11-9-19-14-19-12-21-12-25-12-26-10-25-8-25-6-31-5-21-2-19-1h-18l-32 2-34 5-29 7-29 9-29 12-26 13-22 13-23 16-14 11-14 12-3 3h-2v2l-8 7-13 13-7 8-11 13-13 17-10 15-11 18-9 16-13 28-9 24-6 19-7 28-5 29-3 30v43l4 37 6 31 6 23 10 29 13 30 10 19 12 20 8 12 12 16 10 13 12 13 7 8 16 16 8 7 13 11 16 12 15 10 18 11 24 13 28 12 20 7 27 8 28 6 28 4 25 2h30l33-3 31-5 32-8 27-9 26-11 16-8 17-9 21-13 11-8 12-9 10-8 14-12 8-8 8-7 11-12 9-11 13-16 13-19 10-16 9-16 13-26 11-28 8-26 6-25 5-31 2-20 1-17v-20l-2-27-3-24-6-31-7-25-8-24-13-30-10-19-12-20-15-22-10-13-6-7 2-4 13-13 5-6 4 2 9 11 8 10 12 17 11 18 7 11 8 16 12 25 6 15 8 24 7 25 6 29 4 31 1 11v60l-4 35-5 26-8 31-8 24-9 22-12 25-9 17-11 18-13 19-13 17-12 14-7 8-7 7-7 8-24 22-11 9-19 14-15 10-20 12-24 13-25 11-28 10-23 7-26 6-30 5-37 3h-32l-36-3-36-6-28-7-20-6-33-13-29-14-23-13-18-12-14-10-14-11-14-12-16-15-12-12-7-8-11-12-9-12-10-13-16-25-12-21-13-26-11-28-9-27-6-23-6-32-3-27-1-15v-41l2-24 4-29 6-28 8-28 9-25 11-26 11-22 11-19 14-21 12-16 13-16 7-8 11-12 17-17 8-7 14-12 9-7 14-10 15-10 20-12 24-13 25-11 28-10 25-7 22-5 24-4 26-3z" fill="#222223"/>
<path transform="translate(1102,1598)" d="m0 0 2 1 1 10 5 129 5 138v36h-198l-1-1 2-67 8-215 1-22 1-8z" fill="#423B2E"/>
<path transform="translate(387,658)" d="m0 0h15l3 3-8 15-6 17-2 15-1 52v69l1 576v71l2 17 4 16 4 9 6 11v3l-2 1h-20l-17-3-11-6-11-10-8-14-3-10-1-5v-778l3-14 5-10 8-10 10-8 11-5 3-1z" fill="#212123"/>
<path transform="translate(1635,658)" d="m0 0h13l12 1 12 5 13 10 8 11 5 12 2 8v780l-4 15-6 11-8 9-10 7-6 3-10 2-11 1h-16l-2-1 1-4 6-10 5-15 3-15 1-16 1-658v-48l-1-55-2-21-5-12-3-7v-3l-3-1-4-8z" fill="#212123"/>
<path transform="translate(951,528)" d="m0 0h12l-3 5-16 8-18 12-14 10-17 14-13 12-20 20-7 8-10 13-8 10-6 9-11 18-11 19-9 20-8 19-9 28-7 29-4 24-2 22v44l4 37 5 25 6 23 7 21 13 30 9 17 12 20 8 12 8 11 13 16 7 8 9 10 13 13 8 7 17 14 14 10 15 10 18 10 8 4-1 4h-8l-19-4-28-8-28-11-26-13-13-8-14-9-12-9-10-8-13-11-15-14-1-3h-2l-7-8-11-13-13-18-11-17-9-16-8-16-7-16-8-22-7-26-4-20-3-24-1-15v-29l2-24 5-30 7-27 8-23 9-21 10-20 14-23 11-15 8-10 12-14 7-8h2l2-4 8-7 12-11 11-9 18-13 20-12 14-8 22-10 28-10 26-7z" fill="#212123"/>
<path transform="translate(1267,645)" d="m0 0 4 2 8 11 11 16 13 22 13 27 9 24 8 28 4 20 3 23 1 14v42l-3 25-4 22-6 24-10 28-9 20-12 23-12 19-9 12-10 13-9 10-7 8-15 15-11 9-12 10-17 12-18 11-20 11-28 12-28 9-21 5-16 3h-11l4-2 7-3 14-8 8-5 11-7 16-11 14-11 15-13 26-26 11-14 14-19 12-19 13-23 11-23 9-23 7-22 6-26 4-26 2-26v-29l-3-37-5-28-6-24-8-24-9-23-3-5h-3v2l-7 5-11 11h-2l-1 3-4 4h-2l2-4 29-29 7-8 13-13 2-3h2l2-4z" fill="#212123"/>
<path transform="translate(432,1388)" d="m0 0h115l16 2 8 4 7 6 6 11 1 4v12l-4 10-7 8-9 6-7 2h-133l-10-5-8-7-6-12-1-11 3-10 8-11 11-7z" fill="#FAC76A"/>
<path transform="translate(1597,186)" d="m0 0h2l1 34 2 12 5 9 7 6 10 4 46 1-4 6-18 18-7 8-14 14-7 8-8 8-7 8-7 7-6 2-38 1h-27l-2-2v-68l7-8 12-12 7-8 12-12 7-8 7-7 1-2h2l2-4z" fill="#212123"/>
<path transform="translate(1e3 783)" d="m0 0h17l14 3 4 2-2 4-23 23-7 8-9 10-4 9-1 5v7l3 10 5 8 8 6 8 3h13l11-4 10-9 17-17 7-8 2-3h3l1 6v10l-3 15-5 12-7 10-5 6-10 8-16 8-12 3h-18l-16-4-12-6-9-7-8-8-8-13-5-14-1-5v-21l3-12 8-16 11-12 11-8 10-5z" fill="#222223"/>
<path transform="translate(1064,528)" d="m0 0h12l26 6 32 11 20 9 23 12 22 14 19 14 5 5-12 12-7 8-17 17h-2l-4-8-12-14-4-5-24-24-10-8v-2l-4-2-18-14-25-17-19-10z" fill="#222223"/>
<path transform="translate(672,1388)" d="m0 0h19l10 2 10 5 8 9 4 9 1 11-3 10-6 9-10 7-8 3-18 1-16-2-10-6-8-9-4-9-1-9 2-9 6-9 7-7 11-5z" fill="#FAC76A"/>
<path transform="translate(1667,254)" d="m0 0v3l-19 19-7 8-14 14-7 8-8 8-7 8-7 7-6 2-38 1h-27l-2-2v-68l4-4-1 4v68l51-2 17-1 8-7 12-13 7-7 7-8 15-15 7-8z" fill="#433C2F"/>
<path transform="translate(1597,186)" d="m0 0h2l1 34 2 12 5 9 7 6 10 4 46 1-2 2h-43l-11-4-10-9-5-10-3-16 1-25h-2v2l-8 7-11 12-4 5h-2v2h-2v2h-2v2h-2l2-4 11-11 1-2h2l2-4z" fill="#433C2F"/>
<path transform="translate(1102,1598)" d="m0 0h1v12l-5-4-3-1-2-3-14-1v-1z" fill="#212123"/>
<path transform="translate(1117,931)" d="m0 0h2l-1 5-11 12-9 7h-2l2-4 11-10z" fill="#282725"/>
<path transform="translate(1393,1155)" d="m0 0h2l-1 5-5 5-5 6-8 7-3 2 2-4 12-13z" fill="#2A2826"/>
<path transform="translate(1370,1185)" d="m0 0v3l-12 12-2-1 7-8 4-4z" fill="#212123"/>
<path transform="translate(1336,1215)" d="m0 0 2 1-8 8h-2l-1 3-4 3h-2l2-4 11-9z" fill="#2C2A27"/>
<path transform="translate(355,667)" d="m0 0 2 1-14 14v-3l7-8z" fill="#38332B"/>
<path transform="translate(580,1437)" d="m0 0h2l-2 4-5 6-8 4v-2l8-6z" fill="#2D2A27"/>
<path transform="translate(1405,1139)" d="m0 0h2l-2 5-7 8-1-2z" fill="#2D2A27"/>
<path transform="translate(577,1070)" d="m0 0h2l5 10-1 4-6-11z" fill="#2D2B27"/>
<path transform="translate(1311,1236)" d="m0 0 2 1-5 5-5 2v2h-3v-2z" fill="#2B2926"/>
<path transform="translate(596,1104)" d="m0 0h2l3 5 1 5h-2v-2h-2l-2-4z" fill="#2B2926"/>
<path transform="translate(778,621)" d="m0 0h2l-2 4-9 9v-3l7-7z" fill="#433C2F"/>
</svg>
